<?xml version="1.0" encoding="utf-8"?><svg width="182" height="159" viewBox="0 0 182 159" xmlns="http://www.w3.org/2000/svg" xmlns:xlink="http://www.w3.org/1999/xlink"><svg width="23" height="23" viewBox="-4 -4 23 23" id="font_bold" x="48" y="23" xmlns="http://www.w3.org/2000/svg"><path d="M9.536 10.746c-.302.149-.755.223-1.286.254H5V7.75h3.25c.659.034 1.046.129 1.249.214.554.235.801.655.801 1.364 0 .932-.437 1.256-.764 1.418zM5 3h3c.608.031.966.119 1.153.198.511.216.739.604.739 1.258 0 .861-.403 1.16-.705 1.31-.279.138-.696.206-1.187.234H5V3zm5.99 3.506a2.44 2.44 0 0 0 .281-.274c.473-.532.713-1.214.713-2.025 0-.693-.192-1.315-.572-1.852C10.771 1.456 9.707 1 8.251 1H4c-.552 0-1 .456-1 1.002v9.996A.996.996 0 0 0 3.997 13h4.176c1.61 0 2.812-.496 3.572-1.474a3.533 3.533 0 0 0 .774-2.222c0-.975-.298-1.759-.887-2.33a3.236 3.236 0 0 0-.642-.468z" fill="#303038" fill-rule="evenodd" opacity=".85"/></svg><svg width="23" height="23" viewBox="-4 -4 23 23" id="font_bold_hover" y="46" xmlns="http://www.w3.org/2000/svg"><path d="M9.536 10.746c-.302.149-.755.223-1.286.254H5V7.75h3.25c.659.034 1.046.129 1.249.214.554.235.801.655.801 1.364 0 .932-.437 1.256-.764 1.418zM5 3h3c.608.031.966.119 1.153.198.511.216.739.604.739 1.258 0 .861-.403 1.16-.705 1.31-.279.138-.696.206-1.187.234H5V3zm5.99 3.506a2.44 2.44 0 0 0 .281-.274c.473-.532.713-1.214.713-2.025 0-.693-.192-1.315-.572-1.852C10.771 1.456 9.707 1 8.251 1H4c-.552 0-1 .456-1 1.002v9.996A.996.996 0 0 0 3.997 13h4.176c1.61 0 2.812-.496 3.572-1.474a3.533 3.533 0 0 0 .774-2.222c0-.975-.298-1.759-.887-2.33a3.236 3.236 0 0 0-.642-.468z" fill-rule="evenodd"/></svg><svg width="24" height="23" viewBox="-4 -4 24 23" id="font_italic" xmlns="http://www.w3.org/2000/svg"><path d="M7.944 1.5a.5.5 0 0 0 .5.5h.505L5.956 12H5.3a.5.5 0 0 0 0 1h2.133a.5.5 0 0 0 0-1h-.487L9.939 2h.615a.5.5 0 0 0 0-1h-2.11a.5.5 0 0 0-.5.5z" fill="#303038" fill-rule="evenodd" opacity=".85"/></svg><svg width="24" height="23" viewBox="-4 -4 24 23" id="font_italic_hover" x="24" xmlns="http://www.w3.org/2000/svg"><path d="M7.344 1.5a.5.5 0 0 0 .5.5h.505L5.356 12H4.7a.5.5 0 0 0 0 1h2.133a.5.5 0 0 0 0-1h-.487L9.339 2h.615a.5.5 0 0 0 0-1h-2.11a.5.5 0 0 0-.5.5z" fill-rule="evenodd"/></svg><svg width="24" height="23" viewBox="-4 -4 24 23" id="font_stitch" y="23" xmlns="http://www.w3.org/2000/svg"><path d="M8.592 1c1.835 0 3.325.983 3.7 2.514.024.097.032.21.032.347 0 .306-.192.508-.476.508-.277 0-.438-.153-.522-.444C11.01 2.685 9.95 2 8.562 2c-1.498 0-2.68.822-2.68 2.144 0 .854.447 1.455 1.488 1.858L14.1 6a.5.5 0 1 1 0 1h-3.281c1.252.558 1.781 1.375 1.781 2.607C12.6 11.67 11.018 13 8.623 13c-2.088 0-3.578-1.04-3.954-2.506a1.522 1.522 0 0 1-.069-.444c0-.354.184-.58.484-.58.268 0 .437.145.506.451.284 1.338 1.498 2.08 3.087 2.08 1.666 0 2.848-.927 2.848-2.249 0-1.096-.69-1.757-2.395-2.168l-1.206-.282a7.806 7.806 0 0 1-1-.301L3.1 7a.5.5 0 0 1 0-1l2.303.001c-.408-.487-.596-1.086-.596-1.81C4.807 2.314 6.42 1 8.592 1z" fill="#303038" fill-rule="evenodd" opacity=".85"/></svg><svg width="23" height="23" viewBox="-4 -4 23 23" id="font_stitch_hover" x="23" y="46" xmlns="http://www.w3.org/2000/svg"><path d="M7.992 1c1.835 0 3.325.983 3.7 2.514.024.097.032.21.032.347 0 .306-.192.508-.476.508-.277 0-.438-.153-.522-.444C10.41 2.685 9.35 2 7.962 2c-1.498 0-2.68.822-2.68 2.144 0 .854.447 1.455 1.488 1.858L13.5 6a.5.5 0 1 1 0 1h-3.281C11.47 7.558 12 8.375 12 9.607 12 11.67 10.418 13 8.023 13c-2.088 0-3.578-1.04-3.954-2.506A1.522 1.522 0 0 1 4 10.05c0-.354.184-.58.484-.58.268 0 .437.145.506.451.284 1.338 1.498 2.08 3.087 2.08 1.666 0 2.848-.927 2.848-2.249 0-1.096-.69-1.757-2.395-2.168l-1.206-.282a7.806 7.806 0 0 1-1-.301L2.5 7a.5.5 0 0 1 0-1l2.303.001c-.408-.487-.596-1.086-.596-1.81C4.207 2.314 5.82 1 7.992 1z" fill-rule="evenodd"/></svg><svg width="24" height="23" viewBox="-4 -4 24 23" id="font_under" x="24" y="23" xmlns="http://www.w3.org/2000/svg"><path d="M7.896 10.584c2.796 0 4.504-1.74 4.504-4.246V1.552a.552.552 0 1 0-1.104 0v4.722c0 1.95-1.265 3.287-3.4 3.287-2.127 0-3.4-1.338-3.4-3.287V1.548a.548.548 0 1 0-1.096 0v4.79c0 2.506 1.7 4.246 4.496 4.246zM2.9 11.792h10a.5.5 0 1 1 0 1h-10a.5.5 0 0 1 0-1z" fill="#303038" opacity=".85"/></svg><svg width="24" height="23" viewBox="-4 -4 24 23" id="font_under_hover" x="48" xmlns="http://www.w3.org/2000/svg"><path d="M8.296 10.584c2.796 0 4.504-1.74 4.504-4.246V1.552a.552.552 0 1 0-1.104 0v4.722c0 1.95-1.265 3.287-3.4 3.287-2.127 0-3.4-1.338-3.4-3.287V1.548a.548.548 0 1 0-1.096 0v4.79c0 2.506 1.7 4.246 4.496 4.246zM3.3 11.792h10a.5.5 0 1 1 0 1h-10a.5.5 0 0 1 0-1z"/></svg><svg width="12" height="14" viewBox="-4 -4 12 14" id="ico_arrow_right" x="164" y="72" xmlns="http://www.w3.org/2000/svg"><g fill="none" fill-rule="evenodd"><path d="M.2 0h3v5h-3z"/><path d="M.396.192a.41.41 0 0 0-.002.583l1.8 1.767L.397 4.307a.41.41 0 0 0-.001.583.422.422 0 0 0 .592.001l1.96-1.92a.6.6 0 0 0 .076-.765l-.077-.093L.986.192a.422.422 0 0 0-.59 0z" fill="#303038" fill-rule="nonzero"/></g></svg><svg width="18" height="16" viewBox="-4 -4 18 16" id="ico_close_layer" x="61" y="138" xmlns="http://www.w3.org/2000/svg"><g fill="none" fill-rule="evenodd"><path d="M.4 0h9v8.001h-9z"/><path d="M4.9 3.299L8.053.146a.496.496 0 1 1 .702.701L5.6 4l3.153 3.153a.496.496 0 0 1-.7.702L4.9 4.702 1.748 7.856a.496.496 0 1 1-.702-.702L4.198 4 1.045.847a.496.496 0 0 1 .702-.702L4.9 3.3z" fill="#303038" fill-rule="nonzero"/></g></svg><svg width="21" height="21" viewBox="-4 -4 21 21" id="img_checkbox" y="138" xmlns="http://www.w3.org/2000/svg"><rect x=".5" y=".5" width="12" height="12" rx="4" fill="#FFF" stroke="#929294" stroke-opacity=".3"/></svg><svg width="21" height="21" viewBox="-4 -4 21 21" id="img_checkbox_on" x="21" y="138" xmlns="http://www.w3.org/2000/svg"><g fill="none" fill-rule="evenodd"><rect fill="#0073E6" fill-rule="nonzero" width="13" height="13" rx="4"/><path d="M10.537 4.031a.61.61 0 0 1 .002.864l-4.304 4.32-.282.304a.753.753 0 0 1-.122.106l-.094.093-.026-.025a.75.75 0 0 1-.818-.137l-2.75-2.564a.61.61 0 0 1 .832-.891l2.406 2.245 4.296-4.313a.608.608 0 0 1 .86-.002z" fill="#FFF"/></g></svg><svg width="23" height="23" viewBox="-4 -4 23 23" id="img_edit_lock_hover" x="46" y="46" xmlns="http://www.w3.org/2000/svg"><g fill="none" fill-rule="evenodd"><rect width="15" height="15" rx=".5"/><path fill="#434343" fill-rule="nonzero" d="M10 6h1v6H4V6h1V4.333C5 3.045 6.12 2 7.5 2S10 3.045 10 4.333V6zM9 6V4.429C9 3.639 8.328 3 7.5 3S6 3.64 6 4.429V6h3z"/></g></svg><svg width="23" height="23" viewBox="-4 -4 23 23" id="img_edit_lock_normal" x="72" xmlns="http://www.w3.org/2000/svg"><g fill="none" fill-rule="evenodd"><rect width="15" height="15" rx=".5"/><path fill="#767676" fill-rule="nonzero" d="M10 6h1v6H4V6h1V4.333C5 3.045 6.12 2 7.5 2S10 3.045 10 4.333V6zM9 6V4.429C9 3.639 8.328 3 7.5 3S6 3.64 6 4.429V6h3z"/></g></svg><svg width="23" height="23" viewBox="-4 -4 23 23" id="img_edit_unlock_hover" x="72" y="23" xmlns="http://www.w3.org/2000/svg"><g fill="none" fill-rule="evenodd"><rect width="15" height="15" rx=".5"/><path fill="#767676" fill-rule="nonzero" d="M5 6V4.333C5 3.045 6.12 2 7.5 2c1.155 0 2.127.73 2.414 1.724l-.952.385C8.81 3.474 8.213 3 7.5 3 6.672 3 6 3.64 6 4.429V6h5v6H4V6h1z"/></g></svg><svg width="23" height="23" viewBox="-4 -4 23 23" id="img_edit_unlock_normal" x="72" y="46" xmlns="http://www.w3.org/2000/svg"><g fill="none" fill-rule="evenodd"><rect width="15" height="15" rx=".5"/><path fill="#989898" fill-rule="nonzero" d="M5 6V4.333C5 3.045 6.12 2 7.5 2c1.155 0 2.127.73 2.414 1.724l-.952.385C8.81 3.474 8.213 3 7.5 3 6.672 3 6 3.64 6 4.429V6h5v6H4V6h1z"/></g></svg><svg width="19" height="19" viewBox="-4 -4 19 19" id="picker_transparent" x="42" y="138" xmlns="http://www.w3.org/2000/svg"><g fill="none" fill-rule="evenodd"><path d="M.2 0h11v11H.2z"/><path stroke="#FC193C" stroke-linecap="round" d="M.7 10.5l10-10"/></g></svg><svg width="18" height="18" viewBox="-4 -4 18 18" id="range_decrease" x="164" xmlns="http://www.w3.org/2000/svg"><g fill="none" fill-rule="evenodd"><path fill="#FFF" d="M0 0h10v10H0z"/><path d="M8.426 4.44a.574.574 0 1 1 0 1.148l-6.881-.001a.574.574 0 0 1 0-1.146h6.881z" fill="#767678" fill-rule="nonzero" opacity=".9"/></g></svg><svg width="18" height="18" viewBox="-4 -4 18 18" id="range_increase" x="164" y="18" xmlns="http://www.w3.org/2000/svg"><g fill="none" fill-rule="evenodd"><path fill="#FFF" d="M0 0h10v10H0z"/><path d="M4.985 1c.317 0 .574.257.574.574V4.44h2.867a.574.574 0 1 1 0 1.148l-2.868-.001v2.868a.574.574 0 0 1-1.146 0V5.587H1.545a.574.574 0 0 1 0-1.146h2.867V1.573c0-.317.256-.574.573-.574z" fill="#767678" fill-rule="nonzero" opacity=".9"/></g></svg><svg width="23" height="23" viewBox="-4 -4 23 23" id="tool_crop" y="69" xmlns="http://www.w3.org/2000/svg"><path d="M13.193 1a.197.197 0 0 0-.193.193v.808h-.807a.197.197 0 0 0-.193.193V3H2v9.002c0 .551.446.998.998.998H12V4l1.857-1.856a.564.564 0 0 0 .144-.337v-.615A.197.197 0 0 0 13.808 1h-.615zm-1.694 13.998a.5.5 0 0 1-.5-.5v-1.5h1v1.5a.5.5 0 0 1-.5.5zM14 12.5a.5.5 0 0 1-.5.5H12v-1h1.5a.5.5 0 0 1 .5.5zM2.5 1a.5.5 0 0 1 .5.5V3H2V1.5a.5.5 0 0 1 .5-.5zM-.001 3.498a.5.5 0 0 1 .5-.5h1.5v1h-1.5a.5.5 0 0 1-.5-.5zM3 4h7v.807A.197.197 0 0 1 9.807 5h-.614A.197.197 0 0 0 9 5.194v.613A.197.197 0 0 1 8.807 6h-.613A.197.197 0 0 0 8 6.193v.614A.197.197 0 0 1 7.808 7h-.614A.197.197 0 0 0 7 7.193v.614A.197.197 0 0 1 6.808 8h-.614A.197.197 0 0 0 6 8.193v.614A.197.197 0 0 1 5.808 9h-.614A.197.197 0 0 0 5 9.193v.614a.197.197 0 0 1-.193.193h-.615a.197.197 0 0 0-.193.193v.615a.197.197 0 0 1-.193.193H3v-7zm8 1v7H4l7-7z" fill="#303038" fill-rule="evenodd"/></svg><svg width="23" height="23" viewBox="-4 -4 23 23" id="tool_crop_disabled" x="23" y="69" xmlns="http://www.w3.org/2000/svg"><path d="M13.193 1a.197.197 0 0 0-.193.193v.808h-.807a.197.197 0 0 0-.193.193V3H2v9.002c0 .551.446.998.998.998H12V4l1.857-1.856a.564.564 0 0 0 .144-.337v-.615A.197.197 0 0 0 13.808 1h-.615zm-1.694 13.998a.5.5 0 0 1-.5-.5v-1.5h1v1.5a.5.5 0 0 1-.5.5zM14 12.5a.5.5 0 0 1-.5.5H12v-1h1.5a.5.5 0 0 1 .5.5zM2.5 1a.5.5 0 0 1 .5.5V3H2V1.5a.5.5 0 0 1 .5-.5zM-.001 3.498a.5.5 0 0 1 .5-.5h1.5v1h-1.5a.5.5 0 0 1-.5-.5zM3 4h7v.807A.197.197 0 0 1 9.807 5h-.614A.197.197 0 0 0 9 5.194v.613A.197.197 0 0 1 8.807 6h-.613A.197.197 0 0 0 8 6.193v.614A.197.197 0 0 1 7.808 7h-.614A.197.197 0 0 0 7 7.193v.614A.197.197 0 0 1 6.808 8h-.614A.197.197 0 0 0 6 8.193v.614A.197.197 0 0 1 5.808 9h-.614A.197.197 0 0 0 5 9.193v.614a.197.197 0 0 1-.193.193h-.615a.197.197 0 0 0-.193.193v.615a.197.197 0 0 1-.193.193H3v-7zm8 1v7H4l7-7z" fill="#303038" fill-rule="evenodd" opacity=".5"/></svg><svg width="23" height="23" viewBox="-4 -4 23 23" id="tool_crop_over" x="46" y="69" xmlns="http://www.w3.org/2000/svg"><path d="M13.193 1a.197.197 0 0 0-.193.193v.808h-.807a.197.197 0 0 0-.193.193V3H2v9.002c0 .551.446.998.998.998H12V4l1.857-1.856a.564.564 0 0 0 .144-.337v-.615A.197.197 0 0 0 13.808 1h-.615zm-1.694 13.998a.5.5 0 0 1-.5-.5v-1.5h1v1.5a.5.5 0 0 1-.5.5zM14 12.5a.5.5 0 0 1-.5.5H12v-1h1.5a.5.5 0 0 1 .5.5zM2.5 1a.5.5 0 0 1 .5.5V3H2V1.5a.5.5 0 0 1 .5-.5zM-.001 3.498a.5.5 0 0 1 .5-.5h1.5v1h-1.5a.5.5 0 0 1-.5-.5zM3 4h7v.807A.197.197 0 0 1 9.807 5h-.614A.197.197 0 0 0 9 5.194v.613A.197.197 0 0 1 8.807 6h-.613A.197.197 0 0 0 8 6.193v.614A.197.197 0 0 1 7.808 7h-.614A.197.197 0 0 0 7 7.193v.614A.197.197 0 0 1 6.808 8h-.614A.197.197 0 0 0 6 8.193v.614A.197.197 0 0 1 5.808 9h-.614A.197.197 0 0 0 5 9.193v.614a.197.197 0 0 1-.193.193h-.615a.197.197 0 0 0-.193.193v.615a.197.197 0 0 1-.193.193H3v-7zm8 1v7H4l7-7z" fill="#0073E6" fill-rule="evenodd"/></svg><svg width="23" height="23" viewBox="-4 -4 23 23" id="tool_draw" x="69" y="69" xmlns="http://www.w3.org/2000/svg"><path d="M12.186.7c.293 0 .585.117.813.345l.96.961c.228.229.345.522.345.816 0 .294-.117.587-.345.816l-.868.869-2.588-2.592.87-.87c.227-.228.52-.345.813-.345zm-1.681 1.225l2.574 2.588-8.716 8.663-3.104.86.508-3.307 8.738-8.804z" stroke="#434343" fill="none"/></svg><svg width="23" height="23" viewBox="-4 -4 23 23" id="tool_draw_disabled" x="95" xmlns="http://www.w3.org/2000/svg"><path d="M12.186.7c.293 0 .585.117.813.345l.96.961c.228.229.345.522.345.816 0 .294-.117.587-.345.816l-.868.869-2.588-2.592.87-.87c.227-.228.52-.345.813-.345zm-1.681 1.225l2.574 2.588-8.716 8.663-3.104.86.508-3.307 8.738-8.804z" stroke="#434343" fill="none" opacity=".5"/></svg><svg width="23" height="23" viewBox="-4 -4 23 23" id="tool_draw_over" x="95" y="23" xmlns="http://www.w3.org/2000/svg"><path d="M12.186.7c.293 0 .585.117.813.345l.96.961c.228.229.345.522.345.816 0 .294-.117.587-.345.816l-.868.869-2.588-2.592.87-.87c.227-.228.52-.345.813-.345zm-1.681 1.225l2.574 2.588-8.716 8.663-3.104.86.508-3.307 8.738-8.804z" stroke="#0073E6" fill="none"/></svg><svg width="23" height="23" viewBox="-4 -4 23 23" id="tool_pixelated" x="95" y="46" xmlns="http://www.w3.org/2000/svg"><g fill="none" fill-rule="evenodd"><path d="M0 0h15v15H0z"/><path d="M12.5 10a.5.5 0 0 1 .5.5v3a.5.5 0 0 1-.5.5h-3a.5.5 0 0 1-.5-.5v-3a.5.5 0 0 1 .5-.5h3zm-8 0a.5.5 0 0 1 .5.5v3a.5.5 0 0 1-.5.5h-3a.5.5 0 0 1-.5-.5v-3a.5.5 0 0 1 .5-.5h3zm4-4a.5.5 0 0 1 .5.5v3a.5.5 0 0 1-.5.5h-3a.5.5 0 0 1-.5-.5v-3a.5.5 0 0 1 .5-.5h3zm-4-4a.5.5 0 0 1 .5.5v3a.5.5 0 0 1-.5.5h-3a.5.5 0 0 1-.5-.5v-3a.5.5 0 0 1 .5-.5h3zm8 0a.5.5 0 0 1 .5.5v3a.5.5 0 0 1-.5.5h-3a.5.5 0 0 1-.5-.5v-3a.5.5 0 0 1 .5-.5h3z" fill="#434343"/></g></svg><svg width="23" height="23" viewBox="-4 -4 23 23" id="tool_pixelated_disabled" x="95" y="69" xmlns="http://www.w3.org/2000/svg"><g fill="none" fill-rule="evenodd" opacity=".5"><path d="M0 0h15v15H0z"/><path d="M12.5 10a.5.5 0 0 1 .5.5v3a.5.5 0 0 1-.5.5h-3a.5.5 0 0 1-.5-.5v-3a.5.5 0 0 1 .5-.5h3zm-8 0a.5.5 0 0 1 .5.5v3a.5.5 0 0 1-.5.5h-3a.5.5 0 0 1-.5-.5v-3a.5.5 0 0 1 .5-.5h3zm4-4a.5.5 0 0 1 .5.5v3a.5.5 0 0 1-.5.5h-3a.5.5 0 0 1-.5-.5v-3a.5.5 0 0 1 .5-.5h3zm-4-4a.5.5 0 0 1 .5.5v3a.5.5 0 0 1-.5.5h-3a.5.5 0 0 1-.5-.5v-3a.5.5 0 0 1 .5-.5h3zm8 0a.5.5 0 0 1 .5.5v3a.5.5 0 0 1-.5.5h-3a.5.5 0 0 1-.5-.5v-3a.5.5 0 0 1 .5-.5h3z" fill="#434343"/></g></svg><svg width="23" height="23" viewBox="-4 -4 23 23" id="tool_pixelated_over" y="92" xmlns="http://www.w3.org/2000/svg"><g fill="none" fill-rule="evenodd"><path d="M0 0h15v15H0z"/><path d="M12.5 10a.5.5 0 0 1 .5.5v3a.5.5 0 0 1-.5.5h-3a.5.5 0 0 1-.5-.5v-3a.5.5 0 0 1 .5-.5h3zm-8 0a.5.5 0 0 1 .5.5v3a.5.5 0 0 1-.5.5h-3a.5.5 0 0 1-.5-.5v-3a.5.5 0 0 1 .5-.5h3zm4-4a.5.5 0 0 1 .5.5v3a.5.5 0 0 1-.5.5h-3a.5.5 0 0 1-.5-.5v-3a.5.5 0 0 1 .5-.5h3zm-4-4a.5.5 0 0 1 .5.5v3a.5.5 0 0 1-.5.5h-3a.5.5 0 0 1-.5-.5v-3a.5.5 0 0 1 .5-.5h3zm8 0a.5.5 0 0 1 .5.5v3a.5.5 0 0 1-.5.5h-3a.5.5 0 0 1-.5-.5v-3a.5.5 0 0 1 .5-.5h3z" fill="#0073E6"/></g></svg><svg width="23" height="23" viewBox="-4 -4 23 23" id="tool_redo" x="23" y="92" xmlns="http://www.w3.org/2000/svg"><g fill="none" fill-rule="evenodd"><path d="M0 0h15v15H0z"/><path d="M8.238 2.197a.5.5 0 0 0-.058.638l.058.069 4.098 4.095L1.592 7a.5.5 0 1 0 0 1h10.744l-4.098 4.096a.5.5 0 0 0-.058.638l.058.07a.5.5 0 0 0 .638.057l.07-.058 4.878-4.879a.6.6 0 0 0 .064-.774l-.064-.074-4.879-4.88a.5.5 0 0 0-.707 0z" fill="#303038" fill-rule="nonzero"/></g></svg><svg width="23" height="23" viewBox="-4 -4 23 23" id="tool_redo_disabled" x="46" y="92" xmlns="http://www.w3.org/2000/svg"><g fill="none" fill-rule="evenodd" opacity=".5"><path d="M0 0h15v15H0z"/><path d="M8.238 2.197a.5.5 0 0 0-.058.638l.058.069 4.098 4.095L1.592 7a.5.5 0 1 0 0 1h10.744l-4.098 4.096a.5.5 0 0 0-.058.638l.058.07a.5.5 0 0 0 .638.057l.07-.058 4.878-4.879a.6.6 0 0 0 .064-.774l-.064-.074-4.879-4.88a.5.5 0 0 0-.707 0z" fill="#303038" fill-rule="nonzero"/></g></svg><svg width="23" height="23" viewBox="-4 -4 23 23" id="tool_redo_over" x="69" y="92" xmlns="http://www.w3.org/2000/svg"><g fill="none" fill-rule="evenodd"><path d="M0 0h15v15H0z"/><path d="M8.238 2.197a.5.5 0 0 0-.058.638l.058.069 4.098 4.095L1.592 7a.5.5 0 1 0 0 1h10.744l-4.098 4.096a.5.5 0 0 0-.058.638l.058.07a.5.5 0 0 0 .638.057l.07-.058 4.878-4.879a.6.6 0 0 0 .064-.774l-.064-.074-4.879-4.88a.5.5 0 0 0-.707 0z" fill="#0073E6" fill-rule="nonzero"/></g></svg><svg width="23" height="23" viewBox="-4 -4 23 23" id="tool_remove" x="92" y="92" xmlns="http://www.w3.org/2000/svg"><g fill="#303038"><path d="M8.951 1l.094.003a1.315 1.315 0 0 1 1.223 1.187l.005.114v1.15h3.232l.068.005A.49.49 0 0 1 14 3.94a.49.49 0 0 1-.421.482l-.074.005h-.748v8.918l-.003.093a1.314 1.314 0 0 1-1.203 1.206l-.116.005h-7.87l-.094-.003a1.315 1.315 0 0 1-1.223-1.188l-.005-.113V4.428h-.748l-.068-.005A.49.49 0 0 1 1 3.941a.49.49 0 0 1 .421-.482l.074-.005h3.232v-1.15l.003-.093a1.314 1.314 0 0 1 1.204-1.206L6.05 1h2.9zm2.817 3.428H3.234v8.918l.005.06a.33.33 0 0 0 .267.265l.06.005h7.87l.06-.005a.33.33 0 0 0 .267-.265l.005-.06V4.428zM8.95 1.975h-2.9l-.06.005a.33.33 0 0 0-.274.325v1.15h3.566v-1.15l-.005-.06a.332.332 0 0 0-.328-.27h.001z"/><path d="M5.43 5.906a.493.493 0 0 0-.491.421l-.004.067v5.315c.002.271.223.49.495.488a.493.493 0 0 0 .49-.422l.005-.066V6.394a.491.491 0 0 0-.495-.487zm2.07 0a.493.493 0 0 0-.49.421l-.005.067v5.315a.491.491 0 0 0 .495.488.493.493 0 0 0 .491-.422l.005-.066V6.394a.491.491 0 0 0-.496-.487zm2.073 0a.493.493 0 0 0-.49.421l-.005.067v5.315c.002.271.224.49.495.488a.493.493 0 0 0 .491-.422l.004-.066V6.394a.491.491 0 0 0-.495-.487z"/></g></svg><svg width="23" height="23" viewBox="-4 -4 23 23" id="tool_remove_disabled" x="118" xmlns="http://www.w3.org/2000/svg"><g fill="#303038" opacity=".5"><path d="M8.951 1l.094.003a1.315 1.315 0 0 1 1.223 1.187l.005.114v1.15h3.232l.068.005A.49.49 0 0 1 14 3.94a.49.49 0 0 1-.421.482l-.074.005h-.748v8.918l-.003.093a1.314 1.314 0 0 1-1.203 1.206l-.116.005h-7.87l-.094-.003a1.315 1.315 0 0 1-1.223-1.188l-.005-.113V4.428h-.748l-.068-.005A.49.49 0 0 1 1 3.941a.49.49 0 0 1 .421-.482l.074-.005h3.232v-1.15l.003-.093a1.314 1.314 0 0 1 1.204-1.206L6.05 1h2.9zm2.817 3.428H3.234v8.918l.005.06a.33.33 0 0 0 .267.265l.06.005h7.87l.06-.005a.33.33 0 0 0 .267-.265l.005-.06V4.428zM8.95 1.975h-2.9l-.06.005a.33.33 0 0 0-.274.325v1.15h3.566v-1.15l-.005-.06a.332.332 0 0 0-.328-.27h.001z"/><path d="M5.43 5.906a.493.493 0 0 0-.491.421l-.004.067v5.315c.002.271.223.49.495.488a.493.493 0 0 0 .49-.422l.005-.066V6.394a.491.491 0 0 0-.495-.487zm2.07 0a.493.493 0 0 0-.49.421l-.005.067v5.315a.491.491 0 0 0 .495.488.493.493 0 0 0 .491-.422l.005-.066V6.394a.491.491 0 0 0-.496-.487zm2.073 0a.493.493 0 0 0-.49.421l-.005.067v5.315c.002.271.224.49.495.488a.493.493 0 0 0 .491-.422l.004-.066V6.394a.491.491 0 0 0-.495-.487z"/></g></svg><svg width="23" height="23" viewBox="-4 -4 23 23" id="tool_remove_over" x="118" y="23" xmlns="http://www.w3.org/2000/svg"><g fill="#0073E6"><path d="M8.951 1l.094.003a1.315 1.315 0 0 1 1.223 1.187l.005.114v1.15h3.232l.068.005A.49.49 0 0 1 14 3.94a.49.49 0 0 1-.421.482l-.074.005h-.748v8.918l-.003.093a1.314 1.314 0 0 1-1.203 1.206l-.116.005h-7.87l-.094-.003a1.315 1.315 0 0 1-1.223-1.188l-.005-.113V4.428h-.748l-.068-.005A.49.49 0 0 1 1 3.941a.49.49 0 0 1 .421-.482l.074-.005h3.232v-1.15l.003-.093a1.314 1.314 0 0 1 1.204-1.206L6.05 1h2.9zm2.817 3.428H3.234v8.918l.005.06a.33.33 0 0 0 .267.265l.06.005h7.87l.06-.005a.33.33 0 0 0 .267-.265l.005-.06V4.428zM8.95 1.975h-2.9l-.06.005a.33.33 0 0 0-.274.325v1.15h3.566v-1.15l-.005-.06a.332.332 0 0 0-.328-.27h.001z"/><path d="M5.43 5.906a.493.493 0 0 0-.491.421l-.004.067v5.315c.002.271.223.49.495.488a.493.493 0 0 0 .49-.422l.005-.066V6.394a.491.491 0 0 0-.495-.487zm2.07 0a.493.493 0 0 0-.49.421l-.005.067v5.315a.491.491 0 0 0 .495.488.493.493 0 0 0 .491-.422l.005-.066V6.394a.491.491 0 0 0-.496-.487zm2.073 0a.493.493 0 0 0-.49.421l-.005.067v5.315c.002.271.224.49.495.488a.493.493 0 0 0 .491-.422l.004-.066V6.394a.491.491 0 0 0-.495-.487z"/></g></svg><svg width="23" height="23" viewBox="-4 -4 23 23" id="tool_reset" x="118" y="46" xmlns="http://www.w3.org/2000/svg"><g fill="#303038" fill-rule="evenodd"><path d="M3 6V5h7a4 4 0 1 1 0 8H3.5a.5.5 0 1 1 0-1H10l.176-.005A3 3 0 0 0 10 6H3z"/><path d="M2.354 5.175l.353-.354.003.003 2.472-2.47a.5.5 0 0 1 .638-.058l.07.058a.5.5 0 0 1 0 .707L3.417 5.532l2.471 2.471a.5.5 0 0 1-.707.707L2.71 6.24l-.003.003-.353-.354a.498.498 0 0 1-.145-.31v-.093a.498.498 0 0 1 .145-.311z"/></g></svg><svg width="23" height="23" viewBox="-4 -4 23 23" id="tool_reset_disabled" x="118" y="69" xmlns="http://www.w3.org/2000/svg"><g fill="#303038" fill-rule="evenodd" opacity=".5"><path d="M3 6V5h7a4 4 0 1 1 0 8H3.5a.5.5 0 1 1 0-1H10l.176-.005A3 3 0 0 0 10 6H3z"/><path d="M2.354 5.175l.353-.354.003.003 2.472-2.47a.5.5 0 0 1 .638-.058l.07.058a.5.5 0 0 1 0 .707L3.417 5.532l2.471 2.471a.5.5 0 0 1-.707.707L2.71 6.24l-.003.003-.353-.354a.498.498 0 0 1-.145-.31v-.093a.498.498 0 0 1 .145-.311z"/></g></svg><svg width="23" height="23" viewBox="-4 -4 23 23" id="tool_reset_over" x="118" y="92" xmlns="http://www.w3.org/2000/svg"><g fill="#0073E6" fill-rule="evenodd"><path d="M3 6V5h7a4 4 0 1 1 0 8H3.5a.5.5 0 1 1 0-1H10l.176-.005A3 3 0 0 0 10 6H3z"/><path d="M2.354 5.175l.353-.354.003.003 2.472-2.47a.5.5 0 0 1 .638-.058l.07.058a.5.5 0 0 1 0 .707L3.417 5.532l2.471 2.471a.5.5 0 0 1-.707.707L2.71 6.24l-.003.003-.353-.354a.498.498 0 0 1-.145-.31v-.093a.498.498 0 0 1 .145-.311z"/></g></svg><svg width="23" height="23" viewBox="-4 -4 23 23" id="tool_rotation" y="115" xmlns="http://www.w3.org/2000/svg"><g fill="none" fill-rule="evenodd"><path d="M0 0h15v15H0z"/><path d="M13.262 12.897a.427.427 0 0 1-.435.436h-2.295a.427.427 0 0 1-.435-.436v-2.392c0-.247.189-.435.435-.435.247 0 .436.188.436.435v1.435a5.66 5.66 0 0 0 2.161-4.44A5.635 5.635 0 0 0 7.5 1.87a.427.427 0 0 1-.435-.435c0-.246.188-.435.435-.435C11.084 1 14 3.916 14 7.5a6.53 6.53 0 0 1-2.307 4.962h1.134c.232 0 .435.203.435.435zm-5.762.29a5.635 5.635 0 0 1-5.63-5.629 5.66 5.66 0 0 1 2.162-4.44v1.523c0 .247.189.435.436.435a.427.427 0 0 0 .435-.435v-2.48a.427.427 0 0 0-.435-.436H1.99a.427.427 0 0 0-.435.436c0 .246.189.435.435.435h1.317A6.482 6.482 0 0 0 1 7.558c0 3.584 2.916 6.5 6.5 6.5a.427.427 0 0 0 .435-.435.427.427 0 0 0-.435-.435z" fill="#303038" fill-rule="nonzero"/></g></svg><svg width="23" height="23" viewBox="-4 -4 23 23" id="tool_rotation_disabled" x="23" y="115" xmlns="http://www.w3.org/2000/svg"><g fill="none" fill-rule="evenodd" opacity=".5"><path d="M0 0h15v15H0z"/><path d="M13.262 12.897a.427.427 0 0 1-.435.436h-2.295a.427.427 0 0 1-.435-.436v-2.392c0-.247.189-.435.435-.435.247 0 .436.188.436.435v1.435a5.66 5.66 0 0 0 2.161-4.44A5.635 5.635 0 0 0 7.5 1.87a.427.427 0 0 1-.435-.435c0-.246.188-.435.435-.435C11.084 1 14 3.916 14 7.5a6.53 6.53 0 0 1-2.307 4.962h1.134c.232 0 .435.203.435.435zm-5.762.29a5.635 5.635 0 0 1-5.63-5.629 5.66 5.66 0 0 1 2.162-4.44v1.523c0 .247.189.435.436.435a.427.427 0 0 0 .435-.435v-2.48a.427.427 0 0 0-.435-.436H1.99a.427.427 0 0 0-.435.436c0 .246.189.435.435.435h1.317A6.482 6.482 0 0 0 1 7.558c0 3.584 2.916 6.5 6.5 6.5a.427.427 0 0 0 .435-.435.427.427 0 0 0-.435-.435z" fill="#303038" fill-rule="nonzero"/></g></svg><svg width="23" height="23" viewBox="-4 -4 23 23" id="tool_rotation_over" x="46" y="115" xmlns="http://www.w3.org/2000/svg"><g fill="none" fill-rule="evenodd"><path d="M0 0h15v15H0z"/><path d="M13.262 12.897a.427.427 0 0 1-.435.436h-2.295a.427.427 0 0 1-.435-.436v-2.392c0-.247.189-.435.435-.435.247 0 .436.188.436.435v1.435a5.66 5.66 0 0 0 2.161-4.44A5.635 5.635 0 0 0 7.5 1.87a.427.427 0 0 1-.435-.435c0-.246.188-.435.435-.435C11.084 1 14 3.916 14 7.5a6.53 6.53 0 0 1-2.307 4.962h1.134c.232 0 .435.203.435.435zm-5.762.29a5.635 5.635 0 0 1-5.63-5.629 5.66 5.66 0 0 1 2.162-4.44v1.523c0 .247.189.435.436.435a.427.427 0 0 0 .435-.435v-2.48a.427.427 0 0 0-.435-.436H1.99a.427.427 0 0 0-.435.436c0 .246.189.435.435.435h1.317A6.482 6.482 0 0 0 1 7.558c0 3.584 2.916 6.5 6.5 6.5a.427.427 0 0 0 .435-.435.427.427 0 0 0-.435-.435z" fill="#0073E6" fill-rule="nonzero"/></g></svg><svg width="15" height="12" viewBox="-4 -4 15 12" id="tool_setting" x="164" y="36" xmlns="http://www.w3.org/2000/svg"><path d="M6.688.3a.444.444 0 0 0-.619 0L3.568 2.728a.1.1 0 0 1-.14 0L.928.3A.443.443 0 0 0 .31.3a.419.419 0 0 0 0 .601l2.84 2.76a.5.5 0 0 0 .698 0L6.688.902a.419.419 0 0 0 0-.6z" fill="#929294" fill-rule="evenodd"/></svg><svg width="15" height="12" viewBox="-4 -4 15 12" id="tool_setting_disabled" x="164" y="48" xmlns="http://www.w3.org/2000/svg"><path d="M6.688.3a.444.444 0 0 0-.619 0L3.568 2.728a.1.1 0 0 1-.14 0L.928.3A.443.443 0 0 0 .31.3a.419.419 0 0 0 0 .601l2.84 2.76a.5.5 0 0 0 .698 0L6.688.902a.419.419 0 0 0 0-.6z" fill="#929294" fill-rule="evenodd" opacity=".5"/></svg><svg width="15" height="12" viewBox="-4 -4 15 12" id="tool_setting_over" x="164" y="60" xmlns="http://www.w3.org/2000/svg"><path d="M6.688.3a.444.444 0 0 0-.619 0L3.568 2.728a.1.1 0 0 1-.14 0L.928.3A.443.443 0 0 0 .31.3a.419.419 0 0 0 0 .601l2.84 2.76a.5.5 0 0 0 .698 0L6.688.902a.419.419 0 0 0 0-.6z" fill="#0073E6" fill-rule="evenodd"/></svg><svg width="23" height="23" viewBox="-4 -4 23 23" id="tool_shape" x="69" y="115" xmlns="http://www.w3.org/2000/svg"><path d="M.5 1.5h14v12H.5z" stroke="#303038" fill="none"/></svg><svg width="23" height="23" viewBox="-4 -4 23 23" id="tool_shape_disabled" x="92" y="115" xmlns="http://www.w3.org/2000/svg"><path d="M.5 1.5h14v12H.5z" stroke="#303038" fill="none" opacity=".5"/></svg><svg width="23" height="23" viewBox="-4 -4 23 23" id="tool_shape_over" x="115" y="115" xmlns="http://www.w3.org/2000/svg"><path d="M.5 1.5h14v12H.5z" stroke="#0073E6" fill="none"/></svg><svg width="23" height="23" viewBox="-4 -4 23 23" id="tool_text" x="141" xmlns="http://www.w3.org/2000/svg"><g transform="translate(2 1)" fill="#303038" fill-rule="evenodd"><rect width="1" height="2" rx=".5"/><rect x="10" width="1" height="2" rx=".5"/><rect x="5" width="1" height="12" rx=".5"/><rect width="11" height="1" rx=".5"/><rect x="4" y="11" width="3" height="1" rx=".5"/></g></svg><svg width="23" height="23" viewBox="-4 -4 23 23" id="tool_text_disabled" x="141" y="23" xmlns="http://www.w3.org/2000/svg"><g transform="translate(2 1)" fill="#303038" fill-rule="evenodd" opacity=".5"><rect width="1" height="2" rx=".5"/><rect x="10" width="1" height="2" rx=".5"/><rect x="5" width="1" height="12" rx=".5"/><rect width="11" height="1" rx=".5"/><rect x="4" y="11" width="3" height="1" rx=".5"/></g></svg><svg width="23" height="23" viewBox="-4 -4 23 23" id="tool_text_over" x="141" y="46" xmlns="http://www.w3.org/2000/svg"><g transform="translate(2 1)" fill="#0073E6" fill-rule="evenodd"><rect width="1" height="2" rx=".5"/><rect x="10" width="1" height="2" rx=".5"/><rect x="5" width="1" height="12" rx=".5"/><rect width="11" height="1" rx=".5"/><rect x="4" y="11" width="3" height="1" rx=".5"/></g></svg><svg width="23" height="23" viewBox="-4 -4 23 23" id="tool_undo" x="141" y="69" xmlns="http://www.w3.org/2000/svg"><g fill="none" fill-rule="evenodd"><path d="M0 0h15v15H0z"/><path d="M6.854 2.197a.5.5 0 0 1 .057.638l-.057.069-4.098 4.095L13.5 7a.5.5 0 1 1 0 1H2.756l4.098 4.096a.5.5 0 0 1 .057.638l-.057.07a.5.5 0 0 1-.638.057l-.07-.058-4.879-4.879a.6.6 0 0 1-.063-.774l.063-.074 4.88-4.88a.5.5 0 0 1 .707 0z" fill="#303038" fill-rule="nonzero"/></g></svg><svg width="23" height="23" viewBox="-4 -4 23 23" id="tool_undo_disabled" x="141" y="92" xmlns="http://www.w3.org/2000/svg"><g fill="none" fill-rule="evenodd" opacity=".5"><path d="M0 0h15v15H0z"/><path d="M6.854 2.197a.5.5 0 0 1 .057.638l-.057.069-4.098 4.095L13.5 7a.5.5 0 1 1 0 1H2.756l4.098 4.096a.5.5 0 0 1 .057.638l-.057.07a.5.5 0 0 1-.638.057l-.07-.058-4.879-4.879a.6.6 0 0 1-.063-.774l.063-.074 4.88-4.88a.5.5 0 0 1 .707 0z" fill="#303038" fill-rule="nonzero"/></g></svg><svg width="23" height="23" viewBox="-4 -4 23 23" id="tool_undo_over" x="141" y="115" xmlns="http://www.w3.org/2000/svg"><g fill="none" fill-rule="evenodd"><path d="M0 0h15v15H0z"/><path d="M6.854 2.197a.5.5 0 0 1 .057.638l-.057.069-4.098 4.095L13.5 7a.5.5 0 1 1 0 1H2.756l4.098 4.096a.5.5 0 0 1 .057.638l-.057.07a.5.5 0 0 1-.638.057l-.07-.058-4.879-4.879a.6.6 0 0 1-.063-.774l.063-.074 4.88-4.88a.5.5 0 0 1 .707 0z" fill="#0073E6" fill-rule="nonzero"/></g></svg></svg>